<?xml version="1.0" encoding="iso-8859-1"?>
<!-- Uploaded to: SVG Repo, www.svgrepo.com, Generator: SVG Repo Mixer Tools -->
<svg height="800px" width="800px" version="1.1" id="Layer_1" xmlns="http://www.w3.org/2000/svg" xmlns:xlink="http://www.w3.org/1999/xlink" 
	 viewBox="0 0 512 512" xml:space="preserve">
<circle style="fill:#FDDF6D;" cx="256.001" cy="256.001" r="245.994"/>
<path style="fill:#FCC56B;" d="M308.715,465.677c-135.858,0-245.993-110.134-245.993-245.993
	c0-72.584,31.443-137.816,81.444-182.842C64.527,77.562,10.007,160.414,10.007,256c0,135.858,110.134,245.993,245.993,245.993
	c63.274,0,120.962-23.898,164.549-63.149C386.996,455.999,348.987,465.677,308.715,465.677z"/>
<g>
	<circle style="fill:#FFFFFF;" cx="222.056" cy="179.852" r="70.772"/>
	<circle style="fill:#FFFFFF;" cx="393.436" cy="179.852" r="44.566"/>
</g>
<g>
	<circle style="fill:#7F184C;" cx="315.645" cy="361.319" r="33.411"/>
	<circle style="fill:#7F184C;" cx="243.445" cy="179.852" r="20.015"/>
	<circle style="fill:#7F184C;" cx="400.534" cy="179.852" r="20.015"/>
</g>
<path d="M472.12,118.727c-25.389-39.892-61.21-71.958-103.591-92.729c-4.962-2.435-10.957-0.383-13.39,4.582
	c-2.432,4.962-0.382,10.957,4.582,13.39c39.074,19.151,72.102,48.718,95.514,85.504c24.042,37.776,36.75,81.528,36.75,126.526
	c0,130.124-105.862,235.985-235.985,235.985S20.015,386.122,20.015,256S125.876,20.015,256,20.015
	c5.527,0,10.007-4.481,10.007-10.007S261.527,0,256,0C114.84,0,0,114.84,0,256s114.84,256,256,256s256-114.84,256-256
	C512,207.187,498.21,159.72,472.12,118.727z"/>
<path d="M141.273,179.855c0,44.545,36.24,80.785,80.785,80.785s80.785-36.24,80.785-80.785s-36.24-80.785-80.785-80.785
	C177.514,99.07,141.273,135.31,141.273,179.855z M282.829,179.855c0,33.509-27.261,60.77-60.77,60.77s-60.77-27.261-60.77-60.77
	s27.261-60.77,60.77-60.77C255.568,119.085,282.829,146.346,282.829,179.855z"/>
<path d="M393.43,234.428c30.091,0,54.573-24.482,54.573-54.573s-24.482-54.573-54.573-54.573s-54.573,24.482-54.573,54.573
	S363.339,234.428,393.43,234.428z M393.43,145.297c19.055,0,34.559,15.503,34.559,34.559s-15.503,34.559-34.559,34.559
	c-19.055,0-34.559-15.503-34.559-34.559S374.375,145.297,393.43,145.297z"/>
<path d="M271.642,361.321c0,23.944,19.481,43.424,43.424,43.424c23.943,0,43.424-19.481,43.424-43.424s-19.481-43.424-43.424-43.424
	C291.123,317.897,271.642,337.378,271.642,361.321z M315.066,337.912c12.908,0,23.409,10.502,23.409,23.409
	s-10.502,23.409-23.409,23.409c-12.907,0-23.409-10.502-23.409-23.409S302.159,337.912,315.066,337.912z"/>
<circle cx="330.363" cy="21.536" r="10.007"/>
</svg>